<svg xmlns="http://www.w3.org/2000/svg" viewBox="0 0 1200 630">
  <defs>
    <pattern id="grid" width="34" height="34" patternUnits="userSpaceOnUse">
      <path d="M34 0H0V34" fill="none" stroke="#5fd76a" stroke-opacity="0.09" stroke-width="1"/>
      <circle cx="0" cy="0" r="1.4" fill="#5fd76a" fill-opacity="0.18"/>
    </pattern>
    <radialGradient id="glow" cx="14%" cy="-8%" r="65%">
      <stop offset="0%" stop-color="#5fd76a" stop-opacity="0.15"/>
      <stop offset="60%" stop-color="#5fd76a" stop-opacity="0"/>
    </radialGradient>
  </defs>
  <rect width="1200" height="630" fill="#0c0d10"/>
  <rect width="1200" height="630" fill="url(#grid)"/>
  <rect width="1200" height="630" fill="url(#glow)"/>

  <path d="M70 130V70h60" fill="none" stroke="#5fd76a" stroke-width="3" stroke-linecap="round"/>
  <path d="M1130 500v60h-60" fill="none" stroke="#5fd76a" stroke-width="3" stroke-linecap="round"/>

  <text x="80" y="270" font-family="JetBrains Mono, Consolas, monospace" font-size="20" letter-spacing="2" fill="#5fd76a" opacity="0.85">SCHEMATIC.console / build-queue</text>
  <text x="78" y="350" font-family="Inter, system-ui, sans-serif" font-size="74" font-weight="650" fill="#ece6db">Low-Level Atlas <tspan fill="#5fd76a">II</tspan></text>
  <text x="80" y="410" font-family="Inter, system-ui, sans-serif" font-size="27" fill="#968d7d">Build real systems in C — a shell, an HTTP server, a database engine.</text>

  <g transform="translate(80,450)">
    <rect x="0" y="0" width="30" height="30" rx="5" fill="none" stroke="#5fd76a" stroke-width="2.6"/>
    <rect x="70" y="34" width="30" height="30" rx="5" fill="none" stroke="#6ea8d8" stroke-width="2.6"/>
    <path d="M30 12h16a8 8 0 0 1 8 8v14" fill="none" stroke="#5fd76a" stroke-width="2.4" stroke-linecap="round"/>
    <circle cx="15" cy="46" r="3" fill="#5fd76a"/>
    <circle cx="85" cy="18" r="3" fill="#5fd76a"/>
  </g>
</svg>
